<svg xmlns="http://www.w3.org/2000/svg" viewBox="0 0 300 69.767" overflow="visible">
  <g fill="#fff">
    <path d="M0 0h267v1.948H0Zm300 0v1.948ZM0 0h1.948v66.43H0Zm300 66.43h-15v-1.947h15Zm-168 0H0v-1.947h132Zm168 0h-1.948V27.238H300ZM300 0h-1.948H300Z" class="vqL0p0gW4"/>
    <path d="M26.998 40.914h.676a100.486 100.486 0 0 1-.5-4.124 73.247 73.247 0 0 1-.28-4.123c.935.442 1.844.916 2.715 1.429.876.506 1.72 1.065 2.539 1.662-.065-.442-.11-.883-.143-1.312-.04-.435-.052-.87-.052-1.298 0-1.059.104-2.098.324-3.124-.194 0-.383 0-.565-.013-.188-.006-.37-.013-.551-.013-.74 0-1.462.033-2.182.098-.715.065-1.435.149-2.163.253v-1.416c0-.474.007-.954.007-1.435.006-.48.02-.967.045-1.46 1.91.46 3.78.98 5.624 1.564a78.627 78.627 0 0 1 5.5 1.98c-.078-.545-.13-1.09-.163-1.636a27.529 27.529 0 0 1-.045-1.636c0-1.305.104-2.63.312-3.974-.864-.13-1.721-.22-2.572-.28a37.27 37.27 0 0 0-2.558-.084c-.987 0-1.974.046-2.948.13-.98.084-1.968.214-2.968.377l.065-.48c-.377.025-.747.051-1.11.07-.357.02-.721.033-1.098.033-.623 0-1.24-.026-1.844-.071a33.315 33.315 0 0 1-1.805-.189c0 .331.006.663.013 1.007.006.344.013.675.013 1.006-.39.124-.773.247-1.156.377-.383.13-.766.266-1.156.403l2.312.311a99.254 99.254 0 0 1-.435 8.643 65.805 65.805 0 0 1-1.422 8.701 24.091 24.091 0 0 1 3.753-1.032 20.825 20.825 0 0 1 3.818-.344Zm33.676-6.117a18.745 18.745 0 0 1-1.17-2.526c-.337-.89-.636-1.85-.908-2.883-.422.324-.845.63-1.26.915-.416.293-.844.565-1.286.812a58.865 58.865 0 0 1-1.467-4.182 80.5 80.5 0 0 1-1.221-4.35c-.513.103-1.02.188-1.533.26a17.69 17.69 0 0 1-1.532.142c.188-.415.383-.824.584-1.22.195-.397.403-.793.61-1.182-.597.318-1.168.681-1.7 1.09-.54.41-1.059.851-1.559 1.338a23.803 23.803 0 0 1-2.78-.292c-.895-.15-1.772-.35-2.63-.591.228.364.455.747.683 1.156.233.409.448.812.656 1.22.207.41.402.8.577 1.17.182.37.332.707.449 1a35.75 35.75 0 0 0-1.65 2.662c-.506.922-1 1.857-1.467 2.818v.026a28.623 28.623 0 0 1-1.046-.461c-.35-.156-.701-.331-1.045-.526.182.461.383.89.61 1.286.227.402.468.772.714 1.123-.246.442-.565.961-.935 1.571-.37.604-.798 1.254-1.272 1.955a41.35 41.35 0 0 1-1.591 2.169 36.597 36.597 0 0 1-1.89 2.227 11.29 11.29 0 0 1 2.143-.59 11.9 11.9 0 0 1 1.974-.176c.786 0 1.506.065 2.143.201.643.137 1.195.286 1.662.448.54.189 1.026.41 1.468.65.13-.864.266-1.708.402-2.533.143-.825.286-1.636.442-2.441.682.246 1.376.435 2.097.558.715.117 1.455.182 2.221.182.442 0 .89-.02 1.344-.052.455-.04.91-.091 1.37-.156.189.701.338 1.364.435 1.987.098.623.15 1.195.15 1.714 0 .293-.013.572-.04.838a3.585 3.585 0 0 1-.142.734 16.92 16.92 0 0 1 3.85-1.383 18.845 18.845 0 0 1 4.124-.435 46.86 46.86 0 0 1-1.597-2.461c-.5-.838-.974-1.708-1.429-2.617.416-.176.831-.364 1.234-.559.409-.201.811-.415 1.208-.636Zm-9.39-1.753c-.54.117-1.072.207-1.604.26a16.643 16.643 0 0 1-2.292.064l-.676-.039a72.348 72.348 0 0 1 1.805-6.02 61.108 61.108 0 0 1 2.767 5.735ZM88.232 22.4c-.396 0-.896-.007-1.487-.02a16.69 16.69 0 0 1-1.89-.156 14.83 14.83 0 0 1-2.039-.428 7.883 7.883 0 0 1-1.948-.838 33.932 33.932 0 0 1-.772 3.182 70.775 70.775 0 0 1-1.052 3.214c-.39 1.104-.812 2.267-1.267 3.474a292.067 292.067 0 0 0-1.435 3.942c-.24-.961-.5-1.89-.785-2.786-.28-.89-.565-1.74-.864-2.552a55.043 55.043 0 0 0-.89-2.292 80.87 80.87 0 0 0-.85-1.974 53.25 53.25 0 0 0-1.935-3.857c-1.124.5-2.189.844-3.189 1.026-1 .182-1.915.273-2.746.273a13.357 13.357 0 0 1-2.396-.208 11.09 11.09 0 0 1-.858-.189c-.24-.064-.441-.116-.597-.162.935.78 1.818 1.54 2.656 2.286.831.747 1.623 1.5 2.376 2.26.052.642.078 1.272.078 1.896 0 2.441-.409 4.681-1.227 6.72-.818 2.033-2.013 3.877-3.571 5.52.363-.046.727-.078 1.078-.104.357-.026.707-.039 1.058-.039 2.09 0 4.052.41 5.883 1.234a31.843 31.843 0 0 0 1.675-8.494 24.164 24.164 0 0 1 1.598 4.098c.415 1.435.695 2.987.844 4.656a11.31 11.31 0 0 1 1.682-.397c.578-.09 1.117-.155 1.61-.2.5-.046.929-.072 1.28-.079.357-.006.584-.013.688-.013.169-1.539.467-2.98.896-4.324a27.042 27.042 0 0 1 1.59-3.87 30.554 30.554 0 0 0 1.702 8.623c.455-.208.89-.39 1.299-.546a9.617 9.617 0 0 1 1.208-.383c.396-.097.798-.175 1.207-.227.41-.052.838-.078 1.286-.078.292 0 .604.013.935.039.331.026.675.058 1.04.104a20.647 20.647 0 0 1-1.39-1.74c-.468-.65-.89-1.377-1.26-2.176a14.587 14.587 0 0 1-.91-2.649c-.233-.968-.35-2.026-.35-3.182 0-.604.039-1.234.11-1.89.072-.649.189-1.337.351-2.051.162-.715.37-1.455.63-2.228.26-.772.578-1.578.948-2.415Zm10.383-.857a34.367 34.367 0 0 1-3.682 1.337 22.1 22.1 0 0 1-3.558.74c.279 1.377.48 2.76.61 4.143.13 1.39.195 2.78.195 4.182 0 1.643-.078 3.247-.247 4.831a60.723 60.723 0 0 1-.662 4.67 26.83 26.83 0 0 1 2.52-.423 21.2 21.2 0 0 1 2.402-.136c.331 0 .669.013 1.02.032.344.02.7.046 1.064.072a58.247 58.247 0 0 1-.383-4.137 72.873 72.873 0 0 1 .72-15.312Zm20.123 19.474a13.186 13.186 0 0 1-.571-2.468 17.994 17.994 0 0 1-.169-2.506c0-.845.052-1.702.156-2.572-1.838.299-3.61.701-5.318 1.208a41.233 41.233 0 0 0-4.987 1.818 59.45 59.45 0 0 0 1.227-7.467 75.85 75.85 0 0 0 .37-7.487c-1.052.266-2.11.474-3.169.617a24.151 24.151 0 0 1-3.233.214c-.189 0-.383 0-.578-.007a7.785 7.785 0 0 1-.565-.032c.344 1.669.617 3.35.818 5.032a43.1 43.1 0 0 1 .156 8.572 41.466 41.466 0 0 1-.442 3.48c-.46.28-.902.572-1.33.883-.43.312-.858.63-1.28.961a49.094 49.094 0 0 1 5.058-.714 56.532 56.532 0 0 1 9.461-.045c1.455.117 2.922.285 4.396.513Zm24.137-18.942a24.642 24.642 0 0 1-5.455.61c-.753 0-1.48-.032-2.175-.103a15.482 15.482 0 0 1-2.058-.351 17.206 17.206 0 0 1-1.513 3.558 13.176 13.176 0 0 1-2.325 2.961 14.367 14.367 0 0 1-2.175-2.902 18.074 18.074 0 0 1-1.513-3.513 12.68 12.68 0 0 1-2.13.474c-.734.097-1.507.15-2.312.15-.656 0-1.331-.033-2.026-.098a28.634 28.634 0 0 1-2.13-.28 34.257 34.257 0 0 1 4.903 4.897 35.146 35.146 0 0 1 3.772 5.72 18.662 18.662 0 0 1-.733 3.858 25.228 25.228 0 0 1-1.448 3.7 20.517 20.517 0 0 1 4.013-.402c1.032 0 2.045.078 3.045.24.994.163 2 .39 3.026.695a16.952 16.952 0 0 1-1.123-3.272 15.268 15.268 0 0 1-.396-3.52v-.396c0-.136.006-.266.026-.396a50.468 50.468 0 0 1 4.935-6.117 76.574 76.574 0 0 1 5.792-5.513Zm27.558-.026a40.67 40.67 0 0 0-1.643-.117 31.534 31.534 0 0 0-1.552-.039c-1.181 0-2.37.085-3.571.26a20.2 20.2 0 0 0-3.461.812c-1.104.37-2.143.837-3.104 1.402a10.69 10.69 0 0 0-2.513 2.026 8.99 8.99 0 0 0-1.688 2.702c-.416 1.02-.617 2.155-.617 3.409 0 1.084.175 2.045.532 2.876a6.705 6.705 0 0 0 1.448 2.15 7.818 7.818 0 0 0 2.137 1.487c.811.39 1.675.675 2.584.857-.22.279-.46.545-.714.805-.253.26-.526.513-.831.766.214.085.493.156.837.215.345.058.715.097 1.104.13.396.032.806.051 1.228.064.428.013.83.02 1.22.02.41 0 .812-.013 1.215-.04.402-.025.811-.07 1.22-.129.546.916 1.104 1.714 1.689 2.39a22.752 22.752 0 0 0 1.61 1.714c.572.539 1.13 1 1.675 1.376a8.29 8.29 0 0 1 .923-1.636c.357-.48.72-.909 1.097-1.286.377-.37.747-.688 1.11-.954.364-.266.689-.48.974-.656.286-.175.513-.299.682-.377.169-.078.247-.116.24-.116a19.906 19.906 0 0 1-3.168-.416c-1.065-.227-2.091-.5-3.078-.831a14.242 14.242 0 0 0 2.844-1.331 9.53 9.53 0 0 0 2.299-1.948 8.775 8.775 0 0 0 1.532-2.604c.37-.98.558-2.078.558-3.306 0-1.064-.175-2.032-.532-2.902a7.483 7.483 0 0 0-1.442-2.28 7.777 7.777 0 0 0-2.123-1.61 9.666 9.666 0 0 0-2.578-.909c.273-.363.565-.708.877-1.032.305-.325.636-.637.98-.942Zm-1.013 8.559c0 .798-.156 1.513-.467 2.149a5.07 5.07 0 0 1-1.24 1.61c-.52.442-1.104.78-1.754 1.013a5.898 5.898 0 0 1-2 .35c-.448 0-.935-.058-1.46-.168a7.013 7.013 0 0 1-1.644-.61 7.988 7.988 0 0 1-.123 1.15c-.065.356-.156.72-.28 1.083-.337-.279-.649-.57-.94-.876a6.942 6.942 0 0 1-.754-.968 4.886 4.886 0 0 1-.494-1.058 3.742 3.742 0 0 1-.175-1.136c0-.767.169-1.455.507-2.072a5.36 5.36 0 0 1 1.305-1.571 6.076 6.076 0 0 1 1.798-.994 6.107 6.107 0 0 1 1.975-.344c.376 0 .779.032 1.22.097.435.065.903.189 1.41.358.09-.325.194-.656.305-.981.103-.325.227-.636.37-.942.422.228.785.487 1.097.78.305.298.559.61.76.948.195.337.344.695.441 1.065.091.376.143.746.143 1.117Zm29.013-7.819v-.948c-.39.17-.863.293-1.415.364-.546.071-1.137.104-1.76.104-.48 0-.974-.02-1.468-.059-.493-.039-.974-.09-1.448-.155a15.712 15.712 0 0 1-1.35-.24 14.003 14.003 0 0 1-1.163-.312 30.566 30.566 0 0 1 1.325 3.662c.175.604.312 1.188.416 1.74.104.559.155 1.052.155 1.48 0 .514-.032 1.053-.103 1.624a10.262 10.262 0 0 1-.345 1.701 9.983 9.983 0 0 1-.623 1.624 5.806 5.806 0 0 1-.935 1.37c-.37.396-.799.714-1.292.948-.494.234-1.052.35-1.676.35-.214 0-.441-.012-.662-.038a4.032 4.032 0 0 1-.675-.143l-.078.5a5.284 5.284 0 0 1-.104.46 8.313 8.313 0 0 1-1.507-2.843c-.33-1.065-.493-2.228-.493-3.474 0-.637.045-1.273.136-1.903.091-.623.221-1.273.403-1.948.175-.669.396-1.383.669-2.143.266-.76.584-1.584.948-2.487-.461.182-.929.338-1.41.461-.48.124-.96.227-1.428.305-.474.078-.935.137-1.376.17-.449.032-.87.058-1.273.064a22.042 22.042 0 0 1-2.714-.09c-.065.44-.124.837-.17 1.188-.038.35-.077.688-.11 1.013-.026.324-.052.649-.065.974-.013.324-.02.681-.02 1.071 0 1.662.137 3.22.403 4.669.273 1.454.67 2.753 1.189 3.896.526 1.143 1.175 2.11 1.948 2.903a6.809 6.809 0 0 0 2.688 1.707 11.276 11.276 0 0 1-.909.728c-.143.097-.273.181-.39.26.624.155 1.221.272 1.806.356.578.085 1.136.124 1.675.124 2.156 0 4.058-.422 5.701-1.273 1.65-.85 3.026-2.084 4.137-3.701 1.117-1.624 1.954-3.61 2.52-5.974.558-2.357.843-5.052.843-8.085Zm9.78 18.072a.696.696 0 0 1-.04-.176c-.006-.064-.012-.123-.012-.175 1.688.175 3.35.41 4.987.708 1.642.299 3.279.656 4.915 1.071a15.241 15.241 0 0 1-.26-1.753 19.575 19.575 0 0 1-.078-1.753c0-.643.026-1.28.091-1.91.059-.636.143-1.272.247-1.921-3.474 1.201-6.876 2.026-10.214 2.48a67.131 67.131 0 0 1-.247-5.811c.89.253 1.773.539 2.636.857a28.6 28.6 0 0 1 2.559 1.097 10.148 10.148 0 0 1-.15-.96 12.058 12.058 0 0 1-.045-.968c0-.793.104-1.598.299-2.416-.883.02-1.76.078-2.637.182-.87.104-1.753.26-2.636.454.02-.76.052-1.526.104-2.298.052-.773.117-1.54.195-2.3 3.48.8 6.863 1.89 10.136 3.274a21.549 21.549 0 0 1-.078-1.845c0-1.694.208-3.337.637-4.922a44.56 44.56 0 0 0-2.234-.155 46.762 46.762 0 0 0-7.286.22 53.441 53.441 0 0 0-5.006.793 19.168 19.168 0 0 1-1.572-.351 50.815 50.815 0 0 1-1.545-.442c.058.254.11.494.15.734.038.24.077.48.122.72-.305.085-.616.176-.928.26-.318.085-.63.176-.942.273l2 .247a35.575 35.575 0 0 1 .403 5.442c0 2-.156 3.993-.461 5.974a46.228 46.228 0 0 1-1.357 5.98 14.344 14.344 0 0 1 2.013-.402 23.685 23.685 0 0 1 2.045-.17 44.213 44.213 0 0 1 2.078-.032c.695.007 1.403 0 2.11-.006Zm32.116-8.838c-.266.39-.558.753-.87 1.091-.311.331-.63.636-.96.916a10.444 10.444 0 0 0-1.87-2.085 15.614 15.614 0 0 0-2.222-1.558 17.421 17.421 0 0 0-2.311-1.11 35.349 35.349 0 0 0-2.15-.76 3.79 3.79 0 0 1-.948-.468 4.13 4.13 0 0 1-.747-.675c-.246-.273-.415-.624-.513-1.04.416-.051.832-.09 1.247-.123.416-.032.857-.045 1.312-.045 1.344 0 2.734.136 4.175.41 1.435.272 2.916.752 4.429 1.434a7.148 7.148 0 0 1-.065-.493 5.937 5.937 0 0 1-.04-.559 23.702 23.702 0 0 1-.012-.727c0-.396.02-.838.052-1.318a11.57 11.57 0 0 1 .59-2.929c.17-.487.39-.935.67-1.35a35.77 35.77 0 0 1-2.598.396c-.824.09-1.558.155-2.195.2a30.41 30.41 0 0 1-2.104.079c-2.123.078-4.097.39-5.915.935-.78.234-1.565.532-2.357.896-.792.364-1.54.812-2.234 1.338a10.063 10.063 0 0 0-1.883 1.87 8.288 8.288 0 0 0-1.305 2.48l.52-.26c.174-.077.382-.168.623-.285.24-.11.513-.227.818-.35.006.324.039.655.097 1.006.059.35.15.701.273 1.052.123.35.299.694.513 1.026.214.337.487.643.818.928.416.357.89.676 1.422.955.533.272 1.091.52 1.675.74.585.214 1.176.403 1.767.571.597.163 1.156.312 1.675.455.526.136 1 .266 1.435.383.429.117.766.234 1.02.357a3.413 3.413 0 0 1 .883.662c.155.156.305.332.454.533-.59.143-1.175.253-1.753.325-.584.065-1.162.104-1.734.104-.506 0-1.15-.026-1.922-.072a23.363 23.363 0 0 1-2.558-.324 26.64 26.64 0 0 1-2.955-.721 18.336 18.336 0 0 1-3.097-1.273c.35.63.708 1.344 1.065 2.143.305.682.636 1.506.993 2.474.357.967.701 2.039 1.02 3.227.39-.227.811-.376 1.272-.448.461-.071.948-.11 1.468-.11.675 0 1.39.032 2.143.104.753.071 1.539.104 2.35.104.87 0 1.734-.098 2.598-.293a12.616 12.616 0 0 0 2.474-.837 11.22 11.22 0 0 0 2.188-1.338 9.31 9.31 0 0 0 1.747-1.792 8.367 8.367 0 0 0 1.162-2.195 7.69 7.69 0 0 0 .422-2.558c0-.176 0-.351-.006-.533a5.669 5.669 0 0 0-.046-.565Zm14.24 8.812a49.261 49.261 0 0 1-1.63-7.201 61.292 61.292 0 0 1-.63-7.247h.209c1.188 0 2.33.065 3.428.188a27.33 27.33 0 0 1 3.117.526 12.127 12.127 0 0 1-.292-1.383 8.088 8.088 0 0 1-.084-1.136c0-.604.07-1.124.214-1.546a8.27 8.27 0 0 1 .513-1.195 34.036 34.036 0 0 1-3.364.429c-1.11.084-2.227.13-3.35.13h-.39c.026-.961.078-1.922.156-2.883-.299.467-.578.935-.838 1.415-.266.474-.52.955-.76 1.442a49.616 49.616 0 0 1-5.058-.461 64.373 64.373 0 0 1-4.896-.903c.136.598.24 1.208.305 1.825s.097 1.234.097 1.85a17.21 17.21 0 0 1-.48 4.013 26.455 26.455 0 0 1 4.058-1.383c1.39-.35 2.799-.597 4.221-.746a37.67 37.67 0 0 0-1.584 6.59 49.17 49.17 0 0 0-.5 7.117v.773c0 .266.013.52.026.773a17.698 17.698 0 0 1 3.162-.773 22.085 22.085 0 0 1 3.312-.24c.168 0 .344.006.52.013.174.006.343.013.519.013ZM145.853 62.183c0-.52-.02-.955-.059-1.312a4.102 4.102 0 0 0-.214-.961 2.125 2.125 0 0 0-.41-.689 1.886 1.886 0 0 0-.655-.428 3.288 3.288 0 0 0-.935-.234c-.35-.045-.773-.065-1.28-.065h-3.097v8.948h2.176c.46 0 .844 0 1.149-.006.299-.007.61-.033.922-.072.318-.039.565-.078.747-.123.188-.039.376-.117.565-.234.194-.11.337-.227.428-.337.098-.11.195-.28.292-.507.098-.22.163-.442.202-.662.032-.215.071-.507.097-.877.033-.37.052-.734.059-1.09.006-.351.013-.806.013-1.351Zm-1.208.019v1.52c0 .35-.007.649-.02.896a4.036 4.036 0 0 1-.233 1.181.805.805 0 0 1-.26.338c-.124.097-.24.169-.344.214a1.873 1.873 0 0 1-.494.11 5.73 5.73 0 0 1-.63.053c-.188.006-.454.013-.798.013h-1.442v-7.104h1.26c.383 0 .708 0 .98.013.266.006.507.045.728.104.22.058.396.104.525.143a.626.626 0 0 1 .351.266c.104.136.175.253.22.344.046.09.085.26.111.5.026.247.04.448.04.61.006.163.006.429.006.799Zm8.084 1.85c0-.376 0-.694-.006-.947a9.546 9.546 0 0 0-.065-.754 3.166 3.166 0 0 0-.124-.597 1.507 1.507 0 0 0-.214-.435.946.946 0 0 0-.325-.318 2.305 2.305 0 0 0-.467-.195 3.374 3.374 0 0 0-.617-.11 9.429 9.429 0 0 0-.799-.026c-.441 0-.811.019-1.097.051a2.05 2.05 0 0 0-.753.228c-.208.123-.37.253-.48.39-.105.142-.196.37-.254.675a5.764 5.764 0 0 0-.117.928c-.02.312-.026.74-.026 1.292 0 .397.007.702.02.923.006.22.032.467.064.74.04.273.098.48.176.623.078.137.182.286.318.442.136.15.312.26.52.33.207.066.46.124.76.17.298.045.642.071 1.045.071.311 0 .571-.013.785-.026.215-.02.41-.058.585-.11.175-.059.318-.13.422-.214a1.16 1.16 0 0 0 .266-.351 1.7 1.7 0 0 0 .162-.513c.033-.195.052-.435.059-.714l-.916-.17c-.013.079-.02.183-.032.312-.007.124-.013.221-.02.28-.013.065-.026.136-.058.227a.377.377 0 0 1-.13.201 1.355 1.355 0 0 1-.636.227c-.163.02-.364.026-.591.026-.604 0-1.013-.038-1.228-.13-.207-.084-.324-.26-.344-.532a51.657 51.657 0 0 1-.045-1.909h3.273c.11-.006.409-.032.89-.084Zm-4.156-.545v-.324c0-.156.007-.28.007-.358.006-.078.013-.188.026-.33.006-.137.02-.254.039-.332a3.57 3.57 0 0 1 .078-.26.49.49 0 0 1 .123-.208.354.354 0 0 1 .175-.11c.15-.058.513-.09 1.085-.09.52 0 .87.038 1.065.123.195.077.298.24.318.487.032.422.052.89.058 1.402Zm9.39 3.935v-9.02l-1.182.098v8.922Zm2.156-5.578.15.033.11-.565c.077-.39.149-.805.22-1.26.072-.454.104-.753.104-.902 0-.494-.169-.734-.513-.734-.214 0-.35.058-.422.182-.065.116-.104.33-.104.642s.156 1.182.455 2.604Zm7.169 5.578v-4.357c0-.48-.04-.87-.11-1.169a1.581 1.581 0 0 0-.403-.74 1.52 1.52 0 0 0-.734-.396 5.265 5.265 0 0 0-1.175-.11c-.312 0-.578.006-.793.025a3.335 3.335 0 0 0-.643.11 1.236 1.236 0 0 0-.506.254 1.11 1.11 0 0 0-.305.435 1.782 1.782 0 0 0-.117.682c0 .123.006.22.013.28l.915.038c0-.045.007-.104.007-.182.006-.207.013-.35.026-.422.013-.078.071-.156.156-.233.09-.078.22-.124.396-.143.169-.013.428-.02.773-.02.493 0 .837.04 1.026.117.194.078.292.214.292.422v1.78c-.37 0-.695.006-.968.012-.279.013-.558.026-.85.052a7.253 7.253 0 0 0-.74.104 3.472 3.472 0 0 0-.592.182 1.545 1.545 0 0 0-.46.273 1.13 1.13 0 0 0-.267.376c-.065.15-.097.319-.097.507 0 .415.026.76.084 1.026.059.266.163.493.318.675.15.188.351.318.61.396.254.078.585.117.988.117.604 0 1.058-.071 1.376-.208.312-.136.533-.415.65-.824l.195.941Zm-1.182-1.883c-.02.234-.078.435-.182.598-.11.162-.299.292-.571.396-.273.104-.624.155-1.065.155-.507 0-.819-.071-.916-.22-.097-.15-.15-.526-.15-1.137v-.032a.52.52 0 0 1 .215-.448c.143-.11.422-.188.85-.253.423-.059 1.027-.091 1.819-.091Zm7.798-4.701h-1.22l-1.598 5.558-1.61-5.558h-1.11l2.071 6.584h1.286Zm6.312 3.195c0-.377-.006-.695-.013-.948a7.212 7.212 0 0 0-.058-.754 3.166 3.166 0 0 0-.124-.597 1.934 1.934 0 0 0-.214-.435 1.074 1.074 0 0 0-.325-.318 2.305 2.305 0 0 0-.467-.195 3.478 3.478 0 0 0-.617-.11 9.628 9.628 0 0 0-.799-.026c-.448 0-.811.019-1.104.051-.285.033-.532.11-.746.228a1.69 1.69 0 0 0-.48.39c-.111.142-.196.37-.26.675a5.764 5.764 0 0 0-.117.928c-.013.312-.02.74-.02 1.292 0 .397.007.702.013.923.013.22.032.467.071.74.033.273.091.48.17.623.077.137.188.286.324.442.136.15.305.26.52.33.207.066.46.124.76.17.291.045.642.071 1.045.071.311 0 .571-.013.785-.026.208-.02.403-.058.578-.11.182-.059.318-.13.422-.214.104-.085.195-.208.273-.351.071-.15.13-.318.162-.513.033-.195.052-.435.059-.714l-.922-.17c-.007.079-.02.183-.026.312-.007.124-.02.221-.026.28a1.362 1.362 0 0 1-.052.227.377.377 0 0 1-.13.201 1.545 1.545 0 0 1-.24.13 1.404 1.404 0 0 1-.403.098c-.162.019-.357.025-.584.025-.61 0-1.02-.038-1.228-.13-.214-.084-.324-.26-.344-.532a52.46 52.46 0 0 1-.052-1.909h3.273c.117-.006.416-.032.896-.084Zm-4.162-.546c0-.052 0-.162.006-.324 0-.156 0-.28.007-.358.006-.078.013-.188.02-.33a2.55 2.55 0 0 1 .045-.332c.013-.078.039-.162.071-.26a.49.49 0 0 1 .299-.318c.156-.058.52-.09 1.09-.09.514 0 .87.038 1.066.123.195.077.298.24.311.487.033.422.052.89.065 1.402Zm10.974 3.935v-3.656c0-.298-.007-.552-.013-.766a10.714 10.714 0 0 0-.052-.643 3.089 3.089 0 0 0-.097-.545 2.635 2.635 0 0 0-.176-.422 1.034 1.034 0 0 0-.26-.331 1.604 1.604 0 0 0-.357-.228 2.08 2.08 0 0 0-.48-.143 4.448 4.448 0 0 0-.624-.038c-.493 0-.915.07-1.272.214-.357.143-.585.383-.689.708l-.116-.734h-1.078v6.584h1.181V63.93c0-.162-.006-.37-.02-.63-.012-.253-.012-.435-.012-.539 0-.188.013-.344.039-.467a.94.94 0 0 1 .156-.35.676.676 0 0 1 .311-.254c.137-.058.312-.104.526-.143.215-.032.474-.045.78-.045h.337c.085.006.163.02.247.045.084.026.15.059.195.085a.41.41 0 0 1 .13.155.847.847 0 0 1 .084.234c.02.078.033.195.046.357.013.156.026.306.026.461v4.604Zm4.422-.837a9.852 9.852 0 0 1-.753.039c-.189 0-.305-.065-.35-.195-.04-.124-.06-.403-.06-.838v-4.084h1.215v-.67h-1.214v-1.973l-1.182.097v1.877h-.89v.669h.89v4.487c0 .266.02.48.058.649.033.169.104.325.195.468.097.136.24.24.429.305.194.065.435.097.727.097.273 0 .578-.026.909-.084Zm6.747.844v-6.591h-1.195v4.766c0 .143-.007.26-.02.357-.02.098-.052.195-.103.299a.64.64 0 0 1-.24.234 1.566 1.566 0 0 1-.43.143 3.647 3.647 0 0 1-.649.051c-.233 0-.415-.006-.565-.019a1.145 1.145 0 0 1-.383-.084.65.65 0 0 1-.253-.143.585.585 0 0 1-.136-.254 1.723 1.723 0 0 1-.065-.357 9.248 9.248 0 0 1-.007-.811v-4.182h-1.182v3.857c0 .435.02.792.052 1.084a3.1 3.1 0 0 0 .182.786c.085.234.208.416.364.546.156.13.357.233.59.298.241.072.527.104.87.104.507 0 .936-.078 1.287-.227.35-.156.578-.39.681-.701l.104.844Zm4.779-6.747c-.091-.007-.182-.013-.273-.013-.35 0-.656.078-.909.234a1.489 1.489 0 0 0-.558.669l-.124-.734h-1.078v6.584h1.189v-2.83c0-.137-.007-.358-.026-.676-.013-.318-.02-.559-.02-.721 0-.292.02-.526.046-.701.032-.176.09-.325.181-.461a.736.736 0 0 1 .397-.293c.175-.052.409-.084.694-.084.137 0 .28.013.429.032Zm6.422 3.35c0-.376 0-.694-.013-.947a7.212 7.212 0 0 0-.058-.754 3.166 3.166 0 0 0-.124-.597 1.934 1.934 0 0 0-.214-.435 1.006 1.006 0 0 0-.325-.318 2.305 2.305 0 0 0-.467-.195 3.478 3.478 0 0 0-.617-.11 9.628 9.628 0 0 0-.799-.026c-.441 0-.812.019-1.097.051-.292.033-.54.11-.754.228a1.69 1.69 0 0 0-.48.39c-.104.142-.195.37-.26.675a7.721 7.721 0 0 0-.117.928c-.013.312-.02.74-.02 1.292 0 .397.007.702.014.923.013.22.039.467.071.74.04.273.091.48.17.623.077.137.187.286.324.442.136.15.311.26.52.33.207.066.46.124.759.17.299.045.643.071 1.045.071.312 0 .572-.013.786-.026.214-.02.41-.058.585-.11.175-.059.311-.13.415-.214.104-.085.195-.208.273-.351a1.7 1.7 0 0 0 .162-.513c.033-.195.052-.435.059-.714l-.916-.17a2.726 2.726 0 0 0-.032.312 2.041 2.041 0 0 1-.078.507.377.377 0 0 1-.13.201 1.545 1.545 0 0 1-.24.13 1.41 1.41 0 0 1-.397.098 5.27 5.27 0 0 1-.59.025c-.61 0-1.02-.038-1.228-.13-.208-.084-.324-.26-.344-.532a52.46 52.46 0 0 1-.052-1.909h3.273c.117-.006.415-.032.896-.084Zm-4.162-.545c0-.052 0-.162.006-.324 0-.156.007-.28.007-.358.006-.078.013-.188.02-.33a2.55 2.55 0 0 1 .045-.332c.02-.078.045-.162.071-.26a.567.567 0 0 1 .123-.208.405.405 0 0 1 .182-.11c.15-.058.513-.09 1.085-.09.52 0 .87.038 1.065.123.194.077.298.24.318.487.032.422.052.89.058 1.402Zm13 3.935v-4.357c0-.48-.033-.87-.11-1.169a1.572 1.572 0 0 0-.397-.74 1.572 1.572 0 0 0-.74-.396c-.299-.072-.688-.11-1.169-.11-.318 0-.584.006-.792.025a3.174 3.174 0 0 0-.643.11c-.22.06-.39.144-.513.254a1.11 1.11 0 0 0-.305.435 1.782 1.782 0 0 0-.117.682c0 .123.006.22.013.28l.922.038c0-.045 0-.104.007-.182 0-.207.012-.35.025-.422.013-.078.065-.156.156-.233.091-.078.221-.124.39-.143.175-.013.435-.02.78-.02.493 0 .83.04 1.025.117.188.078.286.214.286.422v1.78c-.364 0-.688.006-.968.012-.272.013-.558.026-.85.052a7.822 7.822 0 0 0-.74.104 3.662 3.662 0 0 0-.592.182 1.505 1.505 0 0 0-.454.273 1.061 1.061 0 0 0-.273.376c-.065.15-.097.319-.097.507 0 .415.032.76.084 1.026.059.266.17.493.318.675.15.188.358.318.61.396.26.078.585.117.988.117.604 0 1.065-.071 1.376-.208.319-.136.533-.415.656-.824l.189.941Zm-1.182-1.883a1.223 1.223 0 0 1-.182.598c-.104.162-.292.292-.565.396-.273.104-.63.155-1.065.155-.513 0-.818-.071-.922-.22-.097-.15-.15-.526-.15-1.137v-.032a.52.52 0 0 1 .215-.448c.143-.11.429-.188.85-.253.423-.059 1.033-.091 1.819-.091Zm8.208 1.89v-6.591h-1.195v4.286c0 .051 0 .136.006.246v.234c0 .143-.006.26-.02.357a.99.99 0 0 1-.11.299.579.579 0 0 1-.233.234 1.566 1.566 0 0 1-.429.143 3.725 3.725 0 0 1-.656.051c-.227 0-.415-.006-.558-.019a1.185 1.185 0 0 1-.39-.084.764.764 0 0 1-.253-.143.66.66 0 0 1-.13-.254 1.38 1.38 0 0 1-.065-.357 9.248 9.248 0 0 1-.013-.5c0-.058 0-.162.007-.311v-4.182h-1.182v3.857c0 .435.013.792.052 1.084.032.293.09.552.175.786.091.234.208.416.37.546.156.13.357.233.591.298.234.072.526.104.87.104.507 0 .929-.078 1.28-.227.35-.156.577-.39.681-.701l.11.844Zm9.467 2.227v-8.818h-1.084l-.11.72c-.221-.603-.858-.908-1.91-.908-.26 0-.493.013-.701.038a2.104 2.104 0 0 0-.539.15c-.162.071-.292.15-.41.24-.11.091-.207.208-.285.357a3.198 3.198 0 0 0-.188.468 3.539 3.539 0 0 0-.11.597c-.033.24-.046.48-.059.72a30.117 30.117 0 0 0 0 1.715c.007.208.026.448.052.734.032.28.078.494.136.65.065.149.156.318.267.493.116.175.26.305.428.39.169.09.377.162.63.22.247.059.539.091.87.091 1.046 0 1.65-.24 1.831-.708v2.942Zm-1.182-3.747c-.026.305-.143.513-.357.617-.208.11-.604.162-1.182.162-.415 0-.714-.013-.909-.051-.195-.033-.33-.091-.415-.182-.085-.091-.13-.234-.143-.429a59.318 59.318 0 0 1-.052-2.792c0-.942.11-1.474.338-1.597.2-.104.59-.156 1.168-.156.572 0 .968.058 1.202.188.233.13.35.357.35.688Zm8.208 1.52v-6.591h-1.195v4.532c0 .104.007.182.007.234 0 .143-.013.26-.026.357-.02.098-.052.195-.104.299a.64.64 0 0 1-.24.234 1.591 1.591 0 0 1-.422.143 3.78 3.78 0 0 1-.656.051 6.73 6.73 0 0 1-.565-.019 1.145 1.145 0 0 1-.383-.084.65.65 0 0 1-.254-.143.585.585 0 0 1-.136-.254 1.723 1.723 0 0 1-.065-.357 9.248 9.248 0 0 1-.013-.5c0-.058.007-.162.007-.311v-4.182h-1.182v3.857c0 .435.02.792.052 1.084.032.293.097.552.182.786.084.234.207.416.363.546.163.13.357.233.591.298.24.072.526.104.87.104.507 0 .935-.078 1.286-.227.35-.156.578-.39.682-.701l.104.844Zm4.442-.747c-.552 0-.948-.039-1.182-.117-.234-.078-.35-.22-.35-.435a25.539 25.539 0 0 1-.066-1.987c0-.247.013-.604.033-1.065a25.4 25.4 0 0 0 .026-1.032c0-.065.013-.13.032-.182a.34.34 0 0 1 .11-.143.975.975 0 0 1 .15-.097.56.56 0 0 1 .208-.065c.09-.02.169-.033.234-.046.058-.013.149-.02.26-.026.116 0 .2-.006.265-.006h.546c.065 0 .15.006.266.006.11.007.201.013.266.026.059.013.137.026.228.046.09.013.156.032.207.065a.975.975 0 0 1 .15.097.34.34 0 0 1 .11.143c.02.052.033.117.033.182 0 .227.006.571.032 1.032.02.461.026.818.026 1.065 0 .753-.02 1.416-.065 1.987 0 .214-.11.357-.331.429-.227.071-.617.11-1.188.123Zm-.013.831c.448 0 .824-.02 1.117-.052.298-.039.552-.117.766-.24.214-.117.376-.247.493-.39.11-.136.202-.357.267-.656.065-.298.103-.59.116-.883.013-.292.02-.7.02-1.22 0-.39 0-.715-.013-.974a7.464 7.464 0 0 0-.071-.767 3.305 3.305 0 0 0-.13-.604 1.834 1.834 0 0 0-.24-.441 1.04 1.04 0 0 0-.345-.312 2.062 2.062 0 0 0-.487-.188 3.303 3.303 0 0 0-.65-.11 10.44 10.44 0 0 0-.837-.026c-.324 0-.604.006-.837.025-.234.02-.449.052-.65.11a2.18 2.18 0 0 0-.487.19 1.04 1.04 0 0 0-.344.31 1.61 1.61 0 0 0-.234.442 2.797 2.797 0 0 0-.136.604 7.464 7.464 0 0 0-.072.767 38.076 38.076 0 0 0 .007 2.194c.013.293.052.585.117.883.065.3.156.52.266.656.11.137.273.267.487.39.214.123.468.201.766.24.299.033.67.052 1.11.052Zm7.052-.928a9.993 9.993 0 0 1-.76.039c-.188 0-.299-.065-.344-.195-.04-.124-.065-.403-.065-.838v-4.084h1.214v-.67h-1.214v-1.973l-1.175.097v1.877h-.897v.669h.897v4.487c0 .266.019.48.051.649.04.169.104.325.202.468.097.136.24.24.428.305.189.065.435.097.728.097.266 0 .571-.026.909-.084Zm2.779.837v-6.584h-1.182v6.584Zm0-9.136h-1.182v1.039h1.182Zm7.136 9.136v-9.214l-1.188.09v3.215a1.21 1.21 0 0 0-.61-.656c-.286-.136-.689-.207-1.208-.207-.266 0-.507.013-.721.038a2.396 2.396 0 0 0-.565.15c-.162.071-.305.15-.422.24-.117.091-.22.208-.305.357a2.42 2.42 0 0 0-.202.461c-.045.156-.084.35-.116.585a6.382 6.382 0 0 0-.059.701c-.013.24-.02.52-.02.844 0 .331.007.591.007.786.007.195.02.422.04.682.019.26.051.467.09.61.045.15.104.305.175.487.072.175.17.312.28.41.11.09.246.181.402.272.163.084.35.15.565.188.22.033.468.052.747.052 1.032 0 1.669-.305 1.915-.922l.11.831Zm-1.188-1.532c-.02.311-.143.52-.364.63-.227.117-.617.168-1.175.168-.571 0-.955-.045-1.143-.136-.195-.084-.305-.266-.325-.526-.026-1.22-.032-2.169-.032-2.844 0-.461.026-.831.09-1.104.066-.28.19-.441.378-.5.22-.065.564-.097 1.032-.097.597 0 1 .065 1.214.194.221.13.325.364.325.715Zm4.28 1.532v-6.584h-1.183v6.584Zm0-9.136h-1.183v1.039h1.182Zm7.064 5.747c0-.377 0-.695-.013-.948a7.212 7.212 0 0 0-.058-.754 3.166 3.166 0 0 0-.124-.597 1.934 1.934 0 0 0-.214-.435 1.006 1.006 0 0 0-.325-.318 2.305 2.305 0 0 0-.467-.195 3.374 3.374 0 0 0-.617-.11 9.429 9.429 0 0 0-.799-.026c-.441 0-.811.019-1.097.051-.292.033-.54.11-.753.228-.208.123-.37.253-.481.39-.104.142-.195.37-.26.675a7.721 7.721 0 0 0-.117.928 32.876 32.876 0 0 0 0 2.215c.007.22.033.467.065.74.04.273.091.48.176.623.078.137.181.286.318.442.136.15.312.26.52.33.207.066.46.124.76.17.298.045.642.071 1.045.071.311 0 .571-.013.785-.026.215-.02.41-.058.585-.11.175-.059.311-.13.415-.214.104-.085.195-.208.273-.351a1.7 1.7 0 0 0 .162-.513c.033-.195.052-.435.059-.714l-.916-.17a2.726 2.726 0 0 0-.032.312 2.041 2.041 0 0 1-.078.507.377.377 0 0 1-.13.201 1.355 1.355 0 0 1-.636.227 5.27 5.27 0 0 1-.591.026c-.61 0-1.02-.038-1.228-.13-.207-.084-.324-.26-.344-.532a72.912 72.912 0 0 1-.052-1.909h3.273c.117-.006.416-.032.896-.084Zm-4.162-.546c0-.052.006-.162.006-.324 0-.156.007-.28.007-.358.006-.078.013-.188.02-.33a2.55 2.55 0 0 1 .045-.332c.02-.078.045-.162.071-.26a.567.567 0 0 1 .123-.208.405.405 0 0 1 .182-.11c.15-.058.513-.09 1.085-.09.52 0 .87.038 1.065.123.194.077.298.24.318.487.032.422.052.89.058 1.402Zm10.974 3.935v-3.656c0-.298-.007-.552-.013-.766-.007-.214-.026-.428-.046-.643a3.025 3.025 0 0 0-.104-.545 3.364 3.364 0 0 0-.168-.422 1.034 1.034 0 0 0-.26-.331 1.822 1.822 0 0 0-.364-.228 1.988 1.988 0 0 0-.48-.143 4.417 4.417 0 0 0-.617-.038c-.494 0-.922.07-1.273.214-.357.143-.59.383-.695.708l-.11-.734h-1.085v6.584h1.182V63.93c0-.162-.006-.37-.013-.63-.013-.253-.02-.435-.02-.539 0-.188.014-.344.04-.467.032-.123.078-.24.156-.35a.676.676 0 0 1 .311-.254c.137-.058.312-.104.526-.143.215-.032.474-.045.78-.045h.337c.085.006.169.02.253.045a.75.75 0 0 1 .189.085.36.36 0 0 1 .13.155.87.87 0 0 1 .09.234c.014.078.027.195.046.357.013.156.02.306.02.461.006.156.006.364.006.617v3.987Z" class="text"/>
    <path d="m292.738.213-.176-.105a.487.487 0 0 0-.49-.071.628.628 0 0 0-.421.315l-10.982 18.42 1.298.772 11.016-18.455a.634.634 0 0 0-.246-.876zM279.02 20.35l1.613.947.702.456.877-1.439-.421-.28-1.474-.842-.42-.281zm5.087 3.648-2.807-1.683-2.492-1.475-3.052-1.824-.947.843 8.981 5.367zm-2.071 3.405 1.123.666.526-2.316-9.297-5.543-1.79 1.543 1.123.667.702-.738c.105-.105.28-.105.386 0s.106.28 0 .387l-.631.667 1.122.666.631-.772c.106-.105.246-.14.351-.035.106.105.14.245.036.386l-.562.738 1.123.666.526-.807c.07-.106.245-.14.35-.07s.14.245.07.35l-.49.738 1.123.666.456-.842c.07-.14.21-.175.35-.105s.176.21.106.35l-.456.842 1.122.666.351-.841c.07-.14.211-.176.351-.14.14.07.175.21.14.35l-.387.913 1.123.667.28-.878c.036-.14.176-.21.316-.175.14.036.211.175.175.315zm-4.386-17.298-.701-1.79-.702 1.79a1.662 1.662 0 0 1-.913.913l-1.79.702 1.79.702c.42.175.737.49.913.912l.702 1.79.701-1.79a1.662 1.662 0 0 1 .913-.912l1.79-.702-1.79-.702c-.386-.141-.737-.492-.913-.913zm-3.86-3.193.388 1.017.385-1.017c.106-.245.281-.42.491-.49l1.017-.387-.981-.42c-.246-.106-.421-.281-.49-.491l-.387-1.017-.386 1.016c-.106.246-.281.421-.49.491l-1.018.386 1.017.387c.175.104.385.28.455.525zm22.736-1.368-1.228.49 1.228.492c.281.105.49.35.632.631l.491 1.228.49-1.228c.106-.28.351-.49.632-.631L300 6.036l-1.228-.49c-.28-.106-.49-.351-.632-.632l-.49-1.228-.527 1.228c-.104.28-.315.49-.596.631zm-5.719 13.718.421 1.088.42-1.088c.106-.246.316-.457.562-.563l1.089-.42-1.089-.42a1.096 1.096 0 0 1-.562-.563l-.42-1.088-.42 1.088a1.095 1.095 0 0 1-.563.562l-1.088.421 1.088.42c.282.107.492.283.562.563z" class="1rFkMm0A1D"/>
  </g>
</svg>
